<svg id="Capa_1" enable-background="new 0 0 512 512" height="512" viewBox="0 0 512 512" width="512" xmlns="http://www.w3.org/2000/svg"><g><g id="Hangouts_3_"><g><g><g><g><path d="m256 512c-3.223 0-6.401-1.04-9.038-3.018-3.75-2.842-5.962-7.28-5.962-11.982v-45.498c-117.1-7.749-211-106.483-211-225.502 0-124.072 101.928-226 226-226s226 101.928 226 226c0 218.789-219.672 284.799-221.884 285.429-1.347.381-2.739.571-4.116.571z" fill="#59c36a"/></g></g></g></g></g><g><g><g><path d="m260.116 511.429c2.212-.63 221.884-66.64 221.884-285.429 0-124.072-101.928-226-226-226v512c1.377 0 2.769-.19 4.116-.571z" fill="#00a66c"/></g></g></g><path d="m382.709 152.582c-5.054-2.52-11.162-1.978-15.703 1.421l-36.006 27.004v-.007c0-24.814-20.186-45-45-45h-120c-24.814 0-45 20.186-45 45v90c0 24.814 20.186 45 45 45h120c24.814 0 45-20.186 45-45v-.007l36.006 27.004c2.637 1.992 5.801 3.003 8.994 3.003 2.285 0 4.585-.527 6.709-1.582 5.083-2.549 8.291-7.734 8.291-13.418v-120c0-5.684-3.208-10.869-8.291-13.418z" fill="#fff5f5"/><path d="m256 316h30c24.814 0 45-20.186 45-45v-.007l36.006 27.004c2.637 1.992 5.801 3.003 8.994 3.003 2.285 0 4.585-.527 6.709-1.582 5.083-2.549 8.291-7.734 8.291-13.418v-120c0-5.684-3.208-10.869-8.291-13.418-5.054-2.52-11.162-1.978-15.703 1.421l-36.006 27.004v-.007c0-24.814-20.186-45-45-45h-30z" fill="#e3e7ea"/></g></svg>