<svg height="512pt" viewBox="0 -76 512 512" width="512pt" xmlns="http://www.w3.org/2000/svg"><path d="m437 0h-362c-41.398438 0-75 33.601562-75 75v210c0 41.398438 33.601562 75 75 75h362c41.398438 0 75-33.601562 75-75v-210c0-41.398438-33.601562-75-75-75zm0 0" fill="#ff5b5c"/><path d="m512 75v210c0 41.398438-33.601562 75-75 75h-181v-360h181c41.398438 0 75 33.601562 75 75zm0 0" fill="#ff3635"/><path d="m339.101562 167.398438-83.101562-51.898438-36.898438-23.101562c-4.800781-3-10.5-3.300782-15.300781-.597657-4.800781 2.695313-7.800781 7.796875-7.800781 13.199219v150c0 5.398438 3 10.496094 7.800781 13.199219 4.5 2.398437 10.5 2.398437 15.300781-.601563l36.898438-23.097656 83.101562-51.898438c4.199219-2.703124 6.898438-7.5 6.898438-12.601562s-2.699219-9.902344-6.898438-12.601562zm0 0" fill="#edf5ff"/><path d="m346 180c0 5.097656-2.699219 9.898438-6.898438 12.597656l-83.101562 51.902344v-129l83.101562 51.898438c4.199219 2.699218 6.898438 7.5 6.898438 12.601562zm0 0" fill="#d7e9ff"/></svg>